<svg width="250" height="500" viewBox="0 0 250 500" fill="none" xmlns="http://www.w3.org/2000/svg">
<path d="M2.98122e-06 0C32.8305 3.91499e-07 65.3395 6.46644 95.6709 19.0301C126.002 31.5938 153.562 50.0087 176.777 73.2233C199.991 96.438 218.406 123.998 230.97 154.329C243.534 184.661 250 217.17 250 250C250 282.831 243.534 315.34 230.97 345.671C218.406 376.002 199.991 403.562 176.777 426.777C153.562 449.991 126.002 468.406 95.6708 480.97C65.3394 493.534 32.8304 500 -8.44416e-05 500L0 250L2.98122e-06 0Z" fill="#FFD8A8"/>
</svg>
