<svg width="164" height="120" viewBox="0 0 164 120" fill="none" xmlns="http://www.w3.org/2000/svg">
<path d="M46.6301 118.491C37.404 116.383 28.8075 112.121 21.543 106.055C14.2785 99.9889 8.55197 92.2904 4.83125 83.5883C1.11052 74.8862 -0.498872 65.4274 0.134522 55.9845C0.767915 46.5415 3.62613 37.3824 8.4757 29.2551C13.3253 21.1279 20.0286 14.2632 28.0382 9.22164C36.0477 4.18012 45.1363 1.10483 54.5615 0.246985C63.9867 -0.61086 73.4811 0.773071 82.2693 4.28573C91.0574 7.79839 98.8899 13.3401 105.127 20.4583L98.6592 26.1257C93.316 20.0278 86.606 15.2803 79.0775 12.2711C71.5489 9.26188 63.4153 8.0763 55.341 8.81119C47.2667 9.54609 39.4807 12.1806 32.6192 16.4995C25.7576 20.8185 20.015 26.6993 15.8605 33.6617C11.706 40.6241 9.25746 48.4705 8.71485 56.56C8.17224 64.6495 9.55097 72.7526 12.7384 80.2075C15.9259 87.6623 20.8316 94.2574 27.0549 99.454C33.2782 104.651 40.6426 108.301 48.5464 110.108L46.6301 118.491Z" fill="#1C7ED6"/>
<path d="M97.6231 97.6231C91.5182 103.728 84.0019 108.233 75.7399 110.739C67.478 113.246 58.7255 113.676 50.2578 111.991C41.79 110.307 33.8683 106.56 27.1944 101.083C20.5204 95.6059 15.3003 88.5674 11.9963 80.5909C8.69236 72.6144 7.40655 63.9462 8.2528 55.3541C9.09905 46.762 12.0512 38.5112 16.8478 31.3326C21.6445 24.1539 28.1374 18.269 35.7517 14.1991C43.3659 10.1292 51.8663 8 60.5 8L60.5 12.7926C52.6545 12.7926 44.93 14.7274 38.0109 18.4258C31.0917 22.1242 25.1915 27.4718 20.8327 33.9952C16.474 40.5185 13.7913 48.0161 13.0223 55.8239C12.2533 63.6316 13.4217 71.5085 16.4241 78.7568C19.4264 86.0052 24.17 92.4012 30.2347 97.3783C36.2994 102.356 43.498 105.76 51.1927 107.291C58.8875 108.821 66.841 108.431 74.3487 106.153C81.8564 103.876 88.6866 99.7819 94.2343 94.2343L97.6231 97.6231Z" fill="#FFD8A8"/>
<path d="M23.5067 76.3781C19.6071 67.6889 18.9358 57.8934 21.6136 48.7535C24.2914 39.6136 30.1426 31.7291 38.1148 26.5181C46.0869 21.3072 55.6568 19.1118 65.1031 20.3269C74.5494 21.5419 83.2522 26.0877 89.6461 33.1465L86.2037 36.2646C80.5522 30.0255 72.86 26.0075 64.5105 24.9336C56.1611 23.8596 47.7025 25.8 40.656 30.4059C33.6096 35.0118 28.4378 41.9808 26.0709 50.0594C23.704 58.138 24.2973 66.7961 27.7442 74.4763L23.5067 76.3781Z" fill="#1C7ED6"/>
<path d="M53.3862 68.2C52.5728 68.2 51.8328 68.06 51.1662 67.78C50.5128 67.4867 49.9462 67.0933 49.4662 66.6C48.9862 66.0933 48.6128 65.52 48.3462 64.88C48.0928 64.2267 47.9662 63.5333 47.9662 62.8C47.9662 61.8133 48.1928 60.9133 48.6462 60.1C49.0995 59.2733 49.7328 58.6133 50.5462 58.12C51.3595 57.6133 52.3128 57.36 53.4062 57.36C54.4995 57.36 55.4395 57.6133 56.2262 58.12C57.0262 58.6133 57.6462 59.2667 58.0862 60.08C58.5262 60.8933 58.7462 61.7667 58.7462 62.7C58.7462 62.86 58.7395 63.0133 58.7262 63.16C58.7128 63.2933 58.6995 63.4067 58.6862 63.5H50.3062C50.3462 64.1133 50.5128 64.6533 50.8062 65.12C51.1128 65.5733 51.4995 65.9333 51.9662 66.2C52.4328 66.4533 52.9328 66.58 53.4662 66.58C54.0528 66.58 54.6062 66.4333 55.1262 66.14C55.6595 65.8467 56.0195 65.46 56.2062 64.98L58.0862 65.52C57.8595 66.0267 57.5128 66.4867 57.0462 66.9C56.5928 67.3 56.0528 67.62 55.4262 67.86C54.7995 68.0867 54.1195 68.2 53.3862 68.2ZM50.2462 62.04H56.5662C56.5262 61.44 56.3528 60.9133 56.0462 60.46C55.7528 59.9933 55.3728 59.6333 54.9062 59.38C54.4528 59.1133 53.9462 58.98 53.3862 58.98C52.8395 58.98 52.3328 59.1133 51.8662 59.38C51.4128 59.6333 51.0395 59.9933 50.7462 60.46C50.4528 60.9133 50.2862 61.44 50.2462 62.04ZM66.4207 59.44C65.5674 59.4533 64.8074 59.6467 64.1407 60.02C63.4874 60.3933 63.0207 60.92 62.7407 61.6V68H60.5407V57.54H62.5807V59.88C62.9407 59.16 63.414 58.5867 64.0007 58.16C64.5874 57.72 65.2074 57.48 65.8607 57.44C65.994 57.44 66.1007 57.44 66.1807 57.44C66.274 57.44 66.354 57.4467 66.4207 57.46V59.44ZM72.5659 68.2C71.7525 68.2 71.0125 68.06 70.3459 67.78C69.6925 67.4867 69.1259 67.0933 68.6459 66.6C68.1659 66.0933 67.7925 65.52 67.5259 64.88C67.2725 64.2267 67.1459 63.5333 67.1459 62.8C67.1459 61.8133 67.3725 60.9133 67.8259 60.1C68.2792 59.2733 68.9125 58.6133 69.7259 58.12C70.5392 57.6133 71.4925 57.36 72.5859 57.36C73.6792 57.36 74.6192 57.6133 75.4059 58.12C76.2059 58.6133 76.8259 59.2667 77.2659 60.08C77.7059 60.8933 77.9259 61.7667 77.9259 62.7C77.9259 62.86 77.9192 63.0133 77.9059 63.16C77.8925 63.2933 77.8792 63.4067 77.8659 63.5H69.4859C69.5259 64.1133 69.6925 64.6533 69.9859 65.12C70.2925 65.5733 70.6792 65.9333 71.1459 66.2C71.6125 66.4533 72.1125 66.58 72.6459 66.58C73.2325 66.58 73.7859 66.4333 74.3059 66.14C74.8392 65.8467 75.1992 65.46 75.3859 64.98L77.2659 65.52C77.0392 66.0267 76.6925 66.4867 76.2259 66.9C75.7725 67.3 75.2325 67.62 74.6059 67.86C73.9792 68.0867 73.2992 68.2 72.5659 68.2ZM69.4259 62.04H75.7459C75.7059 61.44 75.5325 60.9133 75.2259 60.46C74.9325 59.9933 74.5525 59.6333 74.0859 59.38C73.6325 59.1133 73.1259 58.98 72.5659 58.98C72.0192 58.98 71.5125 59.1133 71.0459 59.38C70.5925 59.6333 70.2192 59.9933 69.9259 60.46C69.6325 60.9133 69.4659 61.44 69.4259 62.04ZM88.2832 57.14C88.1499 56.9933 87.9565 56.84 87.7032 56.68C87.4499 56.5067 87.1499 56.3467 86.8032 56.2C86.4565 56.0533 86.0832 55.9333 85.6832 55.84C85.2832 55.7467 84.8699 55.7 84.4432 55.7C83.5099 55.7 82.8165 55.8733 82.3632 56.22C81.9099 56.5667 81.6832 57.0467 81.6832 57.66C81.6832 58.1133 81.8099 58.4733 82.0632 58.74C82.3165 58.9933 82.7032 59.2067 83.2232 59.38C83.7432 59.5533 84.3965 59.74 85.1832 59.94C86.1432 60.1667 86.9765 60.44 87.6832 60.76C88.3899 61.0667 88.9299 61.48 89.3032 62C89.6765 62.52 89.8632 63.2067 89.8632 64.06C89.8632 64.78 89.7299 65.4 89.4632 65.92C89.1965 66.44 88.8232 66.8667 88.3432 67.2C87.8632 67.52 87.3099 67.76 86.6832 67.92C86.0565 68.0667 85.3832 68.14 84.6632 68.14C83.9565 68.14 83.2499 68.0667 82.5432 67.92C81.8499 67.7733 81.1832 67.56 80.5432 67.28C79.9165 66.9867 79.3365 66.6333 78.8032 66.22L79.8232 64.3C79.9965 64.4733 80.2432 64.6667 80.5632 64.88C80.8965 65.08 81.2765 65.2733 81.7032 65.46C82.1432 65.6467 82.6165 65.8067 83.1232 65.94C83.6432 66.06 84.1699 66.12 84.7032 66.12C85.5965 66.12 86.2765 65.9667 86.7432 65.66C87.2232 65.34 87.4632 64.8867 87.4632 64.3C87.4632 63.82 87.3099 63.44 87.0032 63.16C86.6965 62.8667 86.2499 62.62 85.6632 62.42C85.0765 62.22 84.3765 62.02 83.5632 61.82C82.6299 61.5667 81.8499 61.2933 81.2232 61C80.5965 60.6933 80.1232 60.3067 79.8032 59.84C79.4965 59.36 79.3432 58.7533 79.3432 58.02C79.3432 57.0867 79.5699 56.3 80.0232 55.66C80.4765 55.0067 81.0899 54.52 81.8632 54.2C82.6499 53.8667 83.5299 53.7 84.5032 53.7C85.1432 53.7 85.7499 53.7733 86.3232 53.92C86.8965 54.0533 87.4299 54.24 87.9232 54.48C88.4299 54.72 88.8899 54.9933 89.3032 55.3L88.2832 57.14ZM96.5298 68.2C95.7031 68.2 94.9631 68.06 94.3098 67.78C93.6564 67.4867 93.0898 67.0867 92.6098 66.58C92.1431 66.0733 91.7831 65.5 91.5298 64.86C91.2764 64.2067 91.1498 63.5133 91.1498 62.78C91.1498 62.0467 91.2764 61.3533 91.5298 60.7C91.7831 60.0467 92.1431 59.4733 92.6098 58.98C93.0898 58.4733 93.6564 58.08 94.3098 57.8C94.9764 57.5067 95.7164 57.36 96.5298 57.36C97.3431 57.36 98.0764 57.5067 98.7298 57.8C99.3964 58.08 99.9631 58.4733 100.43 58.98C100.91 59.4733 101.276 60.0467 101.53 60.7C101.783 61.3533 101.91 62.0467 101.91 62.78C101.91 63.5133 101.783 64.2067 101.53 64.86C101.276 65.5 100.91 66.0733 100.43 66.58C99.9631 67.0867 99.3964 67.4867 98.7298 67.78C98.0764 68.06 97.3431 68.2 96.5298 68.2ZM93.4098 62.8C93.4098 63.4667 93.5498 64.0667 93.8298 64.6C94.1098 65.1333 94.4831 65.5533 94.9498 65.86C95.4164 66.1667 95.9431 66.32 96.5298 66.32C97.1031 66.32 97.6231 66.1667 98.0898 65.86C98.5698 65.54 98.9498 65.1133 99.2298 64.58C99.5098 64.0333 99.6498 63.4333 99.6498 62.78C99.6498 62.1133 99.5098 61.5133 99.2298 60.98C98.9498 60.4467 98.5698 60.0267 98.0898 59.72C97.6231 59.4 97.1031 59.24 96.5298 59.24C95.9431 59.24 95.4164 59.4 94.9498 59.72C94.4831 60.04 94.1098 60.4667 93.8298 61C93.5498 61.52 93.4098 62.12 93.4098 62.8ZM104.324 68V59.5H102.924V57.8H104.324V57.38C104.324 56.5267 104.458 55.7867 104.724 55.16C105.004 54.5333 105.391 54.0533 105.884 53.72C106.391 53.3733 106.984 53.2 107.664 53.2C108.091 53.2 108.511 53.26 108.924 53.38C109.338 53.4867 109.731 53.64 110.104 53.84L109.624 55.48C109.424 55.3467 109.184 55.2467 108.904 55.18C108.638 55.1 108.378 55.06 108.124 55.06C107.618 55.06 107.224 55.2533 106.944 55.64C106.664 56.0267 106.524 56.5867 106.524 57.32V57.8H109.204V59.5H106.524V68H104.324ZM116.673 67.46C116.487 67.5533 116.253 67.6533 115.973 67.76C115.693 67.8667 115.373 67.96 115.013 68.04C114.667 68.12 114.307 68.16 113.933 68.16C113.48 68.16 113.06 68.08 112.673 67.92C112.287 67.76 111.973 67.5067 111.733 67.16C111.507 66.8 111.393 66.34 111.393 65.78V59.24H110.013V57.54H111.393V54.1H113.593V57.54H115.873V59.24H113.593V65.08C113.62 65.44 113.733 65.7067 113.933 65.88C114.147 66.0533 114.407 66.14 114.713 66.14C115.02 66.14 115.313 66.0867 115.593 65.98C115.873 65.8733 116.08 65.7867 116.213 65.72L116.673 67.46ZM131.217 57.54H133.317L128.917 68H127.037L125.157 63.28L123.277 68H121.397L116.977 57.54H119.077L122.437 65.86L123.917 62L122.117 57.56H123.977L125.157 60.82L126.317 57.56H128.177L126.397 62L127.877 65.86L131.217 57.54ZM133.765 64.94C133.765 64.2733 133.952 63.6933 134.325 63.2C134.712 62.6933 135.238 62.3067 135.905 62.04C136.572 61.76 137.345 61.62 138.225 61.62C138.692 61.62 139.165 61.6533 139.645 61.72C140.138 61.7867 140.572 61.8933 140.945 62.04V61.38C140.945 60.6467 140.725 60.0733 140.285 59.66C139.845 59.2467 139.212 59.04 138.385 59.04C137.798 59.04 137.245 59.1467 136.725 59.36C136.205 59.56 135.652 59.8467 135.065 60.22L134.325 58.74C135.018 58.2733 135.712 57.9267 136.405 57.7C137.112 57.4733 137.852 57.36 138.625 57.36C140.025 57.36 141.125 57.7333 141.925 58.48C142.738 59.2133 143.145 60.26 143.145 61.62V65.52C143.145 65.7733 143.185 65.9533 143.265 66.06C143.358 66.1667 143.512 66.2267 143.725 66.24V68C143.525 68.04 143.345 68.0667 143.185 68.08C143.025 68.0933 142.892 68.1 142.785 68.1C142.318 68.1 141.965 67.9867 141.725 67.76C141.485 67.5333 141.345 67.2667 141.305 66.96L141.245 66.36C140.792 66.9467 140.212 67.4 139.505 67.72C138.798 68.04 138.085 68.2 137.365 68.2C136.672 68.2 136.052 68.06 135.505 67.78C134.958 67.4867 134.532 67.0933 134.225 66.6C133.918 66.1067 133.765 65.5533 133.765 64.94ZM140.425 65.58C140.585 65.4067 140.712 65.2333 140.805 65.06C140.898 64.8867 140.945 64.7333 140.945 64.6V63.4C140.572 63.2533 140.178 63.1467 139.765 63.08C139.352 63 138.945 62.96 138.545 62.96C137.745 62.96 137.092 63.12 136.585 63.44C136.092 63.76 135.845 64.2 135.845 64.76C135.845 65.0667 135.925 65.36 136.085 65.64C136.258 65.92 136.498 66.1467 136.805 66.32C137.125 66.4933 137.518 66.58 137.985 66.58C138.465 66.58 138.925 66.4867 139.365 66.3C139.805 66.1133 140.158 65.8733 140.425 65.58ZM151.694 59.44C150.841 59.4533 150.081 59.6467 149.414 60.02C148.761 60.3933 148.294 60.92 148.014 61.6V68H145.814V57.54H147.854V59.88C148.214 59.16 148.687 58.5867 149.274 58.16C149.861 57.72 150.481 57.48 151.134 57.44C151.267 57.44 151.374 57.44 151.454 57.44C151.547 57.44 151.627 57.4467 151.694 57.46V59.44ZM157.839 68.2C157.026 68.2 156.286 68.06 155.619 67.78C154.966 67.4867 154.399 67.0933 153.919 66.6C153.439 66.0933 153.066 65.52 152.799 64.88C152.546 64.2267 152.419 63.5333 152.419 62.8C152.419 61.8133 152.646 60.9133 153.099 60.1C153.553 59.2733 154.186 58.6133 154.999 58.12C155.813 57.6133 156.766 57.36 157.859 57.36C158.953 57.36 159.893 57.6133 160.679 58.12C161.479 58.6133 162.099 59.2667 162.539 60.08C162.979 60.8933 163.199 61.7667 163.199 62.7C163.199 62.86 163.193 63.0133 163.179 63.16C163.166 63.2933 163.153 63.4067 163.139 63.5H154.759C154.799 64.1133 154.966 64.6533 155.259 65.12C155.566 65.5733 155.953 65.9333 156.419 66.2C156.886 66.4533 157.386 66.58 157.919 66.58C158.506 66.58 159.059 66.4333 159.579 66.14C160.113 65.8467 160.473 65.46 160.659 64.98L162.539 65.52C162.313 66.0267 161.966 66.4867 161.499 66.9C161.046 67.3 160.506 67.62 159.879 67.86C159.253 68.0867 158.573 68.2 157.839 68.2ZM154.699 62.04H161.019C160.979 61.44 160.806 60.9133 160.499 60.46C160.206 59.9933 159.826 59.6333 159.359 59.38C158.906 59.1133 158.399 58.98 157.839 58.98C157.293 58.98 156.786 59.1133 156.319 59.38C155.866 59.6333 155.493 59.9933 155.199 60.46C154.906 60.9133 154.739 61.44 154.699 62.04Z" fill="#1C7ED6"/>
<path d="M108 92.5C108 96.6421 104.642 100 100.5 100C96.3579 100 93 96.6421 93 92.5C93 88.3579 96.3579 85 100.5 85C104.642 85 108 88.3579 108 92.5ZM95.25 92.5C95.25 95.3995 97.6005 97.75 100.5 97.75C103.399 97.75 105.75 95.3995 105.75 92.5C105.75 89.6005 103.399 87.25 100.5 87.25C97.6005 87.25 95.25 89.6005 95.25 92.5Z" fill="#FFD8A8"/>
<path d="M37 79.5C37 83.6421 33.6421 87 29.5 87C25.3579 87 22 83.6421 22 79.5C22 75.3579 25.3579 72 29.5 72C33.6421 72 37 75.3579 37 79.5ZM24.25 79.5C24.25 82.3995 26.6005 84.75 29.5 84.75C32.3995 84.75 34.75 82.3995 34.75 79.5C34.75 76.6005 32.3995 74.25 29.5 74.25C26.6005 74.25 24.25 76.6005 24.25 79.5Z" fill="#1C7ED6"/>
</svg>
